<?xml version="1.0" encoding="UTF-8" standalone="no"?>
<!-- Svg Vector Icons : http://www.onlinewebfonts.com/icon -->

<svg
   xmlns:dc="http://purl.org/dc/elements/1.1/"
   xmlns:cc="http://creativecommons.org/ns#"
   xmlns:rdf="http://www.w3.org/1999/02/22-rdf-syntax-ns#"
   xmlns:svg="http://www.w3.org/2000/svg"
   xmlns="http://www.w3.org/2000/svg"
   xmlns:sodipodi="http://sodipodi.sourceforge.net/DTD/sodipodi-0.dtd"
   xmlns:inkscape="http://www.inkscape.org/namespaces/inkscape"
   version="1.1"
   x="0px"
   y="0px"
   viewBox="0 0 1000 1000"
   enable-background="new 0 0 1000 1000"
   xml:space="preserve"
   id="svg2"
   inkscape:version="0.91 r13725"
   sodipodi:docname="logo-white.svg"><defs
     id="defs12" /><sodipodi:namedview
     pagecolor="#ffffff"
     bordercolor="#666666"
     borderopacity="1"
     objecttolerance="10"
     gridtolerance="10"
     guidetolerance="10"
     inkscape:pageopacity="0"
     inkscape:pageshadow="2"
     inkscape:window-width="1333"
     inkscape:window-height="744"
     id="namedview10"
     showgrid="false"
     inkscape:zoom="0.236"
     inkscape:cx="-237.28814"
     inkscape:cy="500"
     inkscape:window-x="33"
     inkscape:window-y="24"
     inkscape:window-maximized="1"
     inkscape:current-layer="g6" /><metadata
     id="metadata4"> Svg Vector Icons : http://www.onlinewebfonts.com/icon <rdf:RDF><cc:Work
     rdf:about=""><dc:format>image/svg+xml</dc:format><dc:type
       rdf:resource="http://purl.org/dc/dcmitype/StillImage" /></cc:Work></rdf:RDF></metadata><g
     id="g6"><path
       d="M780,990H220c-77.3,0-140-62.7-140-140V220c0-77.3,62.7-140,140-140h70c0-8.8,2-16.9,5-24.6c0.9-2.3,2-4.3,3.1-6.5c2.7-5.4,6-10.3,9.9-14.8c1.6-1.8,3-3.6,4.7-5.2c5.9-5.5,12.5-10.3,20-13.5C341.1,12,350.3,10,360,10h280c9.7,0,18.9,2,27.2,5.5c7.6,3.2,14.1,8,20,13.5c1.7,1.6,3.1,3.4,4.7,5.2c3.9,4.5,7.2,9.4,9.9,14.8c1.1,2.2,2.2,4.2,3.1,6.5c2.9,7.7,5,15.9,5,24.6h70c77.3,0,140,62.7,140,140v630C920,927.3,857.3,990,780,990z M640,80H360v70h280V80z M850,220c0-38.6-31.3-70-70-70h-70c0,38.7-31.3,70-70,70H360c-38.7,0-70-31.3-70-70h-70c-38.7,0-70,31.3-70,70v630c0,38.7,31.3,70,70,70h560c38.7,0,70-31.3,70-70V220z M290,640h420v70H290V640z M640,360h70v70h-70V360z M710,570H290v-70h420V570z M290,360h280v70H290V360z"
       id="path8"
       style="fill:#ffffff;fill-opacity:1" /></g></svg>