<?xml version="1.0" encoding="utf-8"?>
<!-- Svg Vector Icons : http://www.onlinewebfonts.com/icon -->
<!DOCTYPE svg PUBLIC "-//W3C//DTD SVG 1.1//EN" "http://www.w3.org/Graphics/SVG/1.1/DTD/svg11.dtd">
<svg version="1.1" xmlns="http://www.w3.org/2000/svg" xmlns:xlink="http://www.w3.org/1999/xlink" x="0px" y="0px" viewBox="0 0 1000 1000" enable-background="new 0 0 1000 1000" xml:space="preserve">
<metadata> Svg Vector Icons : http://www.onlinewebfonts.com/icon </metadata>
<g><path d="M780,990H220c-77.3,0-140-62.7-140-140V220c0-77.3,62.7-140,140-140h70c0-8.8,2-16.9,5-24.6c0.9-2.3,2-4.3,3.1-6.5c2.7-5.4,6-10.3,9.9-14.8c1.6-1.8,3-3.6,4.7-5.2c5.9-5.5,12.5-10.3,20-13.5C341.1,12,350.3,10,360,10h280c9.7,0,18.9,2,27.2,5.5c7.6,3.2,14.1,8,20,13.5c1.7,1.6,3.1,3.4,4.7,5.2c3.9,4.5,7.2,9.4,9.9,14.8c1.1,2.2,2.2,4.2,3.1,6.5c2.9,7.7,5,15.9,5,24.6h70c77.3,0,140,62.7,140,140v630C920,927.3,857.3,990,780,990z M640,80H360v70h280V80z M850,220c0-38.6-31.3-70-70-70h-70c0,38.7-31.3,70-70,70H360c-38.7,0-70-31.3-70-70h-70c-38.7,0-70,31.3-70,70v630c0,38.7,31.3,70,70,70h560c38.7,0,70-31.3,70-70V220z M290,640h420v70H290V640z M640,360h70v70h-70V360z M710,570H290v-70h420V570z M290,360h280v70H290V360z"/></g>
</svg>